<?xml version="1.0" standalone="no"?><!DOCTYPE svg PUBLIC "-//W3C//DTD SVG 1.1//EN" "http://www.w3.org/Graphics/SVG/1.1/DTD/svg11.dtd"><svg t="1574470796230" class="icon" viewBox="0 0 1024 1024" version="1.1" xmlns="http://www.w3.org/2000/svg" p-id="26852" width="64" height="64" xmlns:xlink="http://www.w3.org/1999/xlink"><defs><style type="text/css"></style></defs><path d="M513.8 63.9c-203.7 0-368.8 165.9-368.8 371 0 102.5 41.3 195.2 108.1 262.3l260.7 262.3 260.7-262.3c69.2-69.8 108.1-164 108.1-262.3-0.2-205-165.3-371-368.8-371z m0 535.9c-43.7 0-85.5-17.6-116.1-48.5-30.6-30.9-47.9-72.7-47.9-116.4s17-85.5 47.9-116.4c30.6-30.9 72.4-48.2 116.1-48.5 43.7 0 85.5 17.6 116.1 48.5 30.6 30.9 47.9 72.7 47.9 116.4 0.3 43.7-17 85.5-47.9 116.4-30.9 30.9-72.7 48.2-116.1 48.5z m0 0" fill="#333333" p-id="26853"></path></svg>